<!-- Generated by IcoMoon.io -->
<svg version="1.1" xmlns="http://www.w3.org/2000/svg" viewBox="0 0 489 512">
<title></title>
<g id="icomoon-ignore">
</g>
<path d="M460.384 288.606c0-41.222 0-81.995 0-123.216 0-14.338-6.273-22.851-19.714-26.884-121.425-36.741-242.401-73.93-363.826-110.223-18.819-5.825-33.605 5.377-33.605 25.091 0 54.216 0 107.983 0 162.198 0 4.481 0.448 10.305-1.792 13.89-2.688 4.032-8.066 8.065-12.546 8.065-4.032 0-9.409-4.481-12.546-8.065-2.241-2.689-2.241-7.169-2.241-11.202 0-53.767-0.448-107.087 0-160.854 0.448-43.014 32.709-66.314 73.93-54.215 17.475 4.929 34.948 10.754 52.423 16.13 100.365 30.468 200.732 60.936 301.098 91.404 33.156 9.858 46.599 25.988 46.599 60.937 0.448 79.307 0.448 158.166 0 237.473 0 36.741-23.748 62.729-56.007 58.696-18.37-2.24-36.293-9.858-53.767-15.682-7.169-2.24-8.962-9.409-6.721-16.578 2.688-7.617 8.962-9.858 16.13-8.065 11.202 3.137 22.403 6.273 33.604 10.305 23.748 8.065 38.534-2.24 38.534-26.884v-122.32z"></path>
<path d="M273.094 342.373c0-45.255 0-90.060 0-135.315 0-15.234 8.065-27.332 21.059-31.813 12.993-4.929 28.228-1.792 35.845 9.41 4.481 6.721 8.065 15.682 8.065 23.748 0.896 89.164 0.448 178.777 0.448 267.492 0 14.338-4.929 26.436-18.819 32.709-12.098 5.377-23.748 4.48-34.053-3.584-9.409-7.169-12.546-17.474-12.546-29.125z"></path>
<path d="M247.554 344.613c0 33.604 0 67.209 0 100.814 0 14.338-6.721 25.539-20.611 31.365-12.546 4.929-25.54 4.033-34.501-6.721-5.377-6.721-9.857-16.578-9.857-25.091-0.896-67.658-0.448-135.315 0-202.971 0-21.059 13.89-34.948 33.156-34.5 18.37 0.448 31.813 14.786 31.813 34.948 0 34.052 0 68.554 0 102.157z"></path>
<path d="M156.149 343.269c0 21.955 0 43.91 0 65.417 0 19.714-14.338 34.5-32.261 34.5-17.922 0.448-32.261-14.786-32.261-34.5 0-43.91 0-88.268 0-132.178 0-19.714 12.993-33.156 31.364-33.605 18.819-0.448 33.156 13.89 33.156 33.157 0.448 22.403 0 44.807 0 67.209z"></path>
<path d="M64.745 344.166v35.397c0 18.818-12.546 32.26-30.468 33.605-16.13 0.896-33.157-12.993-33.605-30.916-0.896-25.988-0.896-51.527 0-77.514 0.448-17.474 17.474-31.365 34.053-30.469 17.922 0.896 30.020 14.786 30.468 33.605v36.293z"></path>
</svg>
